<svg width="24" height="16" viewBox="0 0 24 16" fill="none" xmlns="http://www.w3.org/2000/svg">
<path d="M12 12.8C13.3636 12.8 14.5227 12.3333 15.4773 11.4C16.4318 10.4667 16.9091 9.33333 16.9091 8C16.9091 6.66667 16.4318 5.53333 15.4773 4.6C14.5227 3.66667 13.3636 3.2 12 3.2C10.6364 3.2 9.47727 3.66667 8.52273 4.6C7.56818 5.53333 7.09091 6.66667 7.09091 8C7.09091 9.33333 7.56818 10.4667 8.52273 11.4C9.47727 12.3333 10.6364 12.8 12 12.8ZM12 10.88C11.1818 10.88 10.4864 10.6 9.91364 10.04C9.34091 9.48 9.05455 8.8 9.05455 8C9.05455 7.2 9.34091 6.52 9.91364 5.96C10.4864 5.4 11.1818 5.12 12 5.12C12.8182 5.12 13.5136 5.4 14.0864 5.96C14.6591 6.52 14.9455 7.2 14.9455 8C14.9455 8.8 14.6591 9.48 14.0864 10.04C13.5136 10.6 12.8182 10.88 12 10.88ZM12 16C9.34545 16 6.92727 15.2756 4.74545 13.8267C2.56364 12.3778 0.981818 10.4356 0 8C0.981818 5.56444 2.56364 3.62222 4.74545 2.17333C6.92727 0.724444 9.34545 0 12 0C14.6545 0 17.0727 0.724444 19.2545 2.17333C21.4364 3.62222 23.0182 5.56444 24 8C23.0182 10.4356 21.4364 12.3778 19.2545 13.8267C17.0727 15.2756 14.6545 16 12 16ZM12 13.8667C14.0545 13.8667 15.9409 13.3378 17.6591 12.28C19.3773 11.2222 20.6909 9.79556 21.6 8C20.6909 6.20444 19.3773 4.77778 17.6591 3.72C15.9409 2.66222 14.0545 2.13333 12 2.13333C9.94545 2.13333 8.05909 2.66222 6.34091 3.72C4.62273 4.77778 3.30909 6.20444 2.4 8C3.30909 9.79556 4.62273 11.2222 6.34091 12.28C8.05909 13.3378 9.94545 13.8667 12 13.8667Z" fill="#898A8D"/>
</svg>
