<svg width="21" height="25" viewBox="0 0 21 25" fill="none" xmlns="http://www.w3.org/2000/svg">
<path d="M2.625 25C1.90312 25 1.28516 24.7481 0.771094 24.2444C0.257031 23.7406 0 23.135 0 22.4276V9.5659C0 8.85851 0.257031 8.25293 0.771094 7.74918C1.28516 7.24543 1.90312 6.99355 2.625 6.99355H3.9375V6.43088C3.9375 4.65167 4.57734 3.13506 5.85703 1.88104C7.13672 0.62702 8.68437 9.65941e-06 10.5 9.65941e-06C12.3156 9.65941e-06 13.8633 0.62702 15.143 1.88104C16.4227 3.13506 17.0625 4.65167 17.0625 6.43088V6.99355H18.375C19.0969 6.99355 19.7148 7.24543 20.2289 7.74918C20.743 8.25293 21 8.85851 21 9.5659V22.4276C21 23.135 20.743 23.7406 20.2289 24.2444C19.7148 24.7481 19.0969 25 18.375 25H2.625ZM2.625 22.4276H18.375V9.5659H2.625V22.4276ZM10.5 18.5691C11.2219 18.5691 11.8398 18.3173 12.3539 17.8135C12.868 17.3097 13.125 16.7042 13.125 15.9968C13.125 15.2894 12.868 14.6838 12.3539 14.1801C11.8398 13.6763 11.2219 13.4244 10.5 13.4244C9.77812 13.4244 9.16016 13.6763 8.64609 14.1801C8.13203 14.6838 7.875 15.2894 7.875 15.9968C7.875 16.7042 8.13203 17.3097 8.64609 17.8135C9.16016 18.3173 9.77812 18.5691 10.5 18.5691ZM6.5625 6.99355H14.4375V6.43088C14.4375 5.35907 14.0547 4.44803 13.2891 3.69776C12.5234 2.94749 11.5937 2.57236 10.5 2.57236C9.40625 2.57236 8.47656 2.94749 7.71094 3.69776C6.94531 4.44803 6.5625 5.35907 6.5625 6.43088V6.99355Z" fill="#898A8D"/>
</svg>
