<svg width="42" height="42" viewBox="0 0 42 42" fill="none" xmlns="http://www.w3.org/2000/svg">
<path d="M21 21C18.1125 21 15.6406 19.9719 13.5844 17.9156C11.5281 15.8594 10.5 13.3875 10.5 10.5C10.5 7.6125 11.5281 5.14063 13.5844 3.08438C15.6406 1.02813 18.1125 0 21 0C23.8875 0 26.3594 1.02813 28.4156 3.08438C30.4719 5.14063 31.5 7.6125 31.5 10.5C31.5 13.3875 30.4719 15.8594 28.4156 17.9156C26.3594 19.9719 23.8875 21 21 21ZM0 42V34.65C0 33.1625 0.382812 31.7953 1.14844 30.5484C1.91406 29.3016 2.93125 28.35 4.2 27.6938C6.9125 26.3375 9.66875 25.3203 12.4688 24.6422C15.2687 23.9641 18.1125 23.625 21 23.625C23.8875 23.625 26.7313 23.9641 29.5312 24.6422C32.3312 25.3203 35.0875 26.3375 37.8 27.6938C39.0687 28.35 40.0859 29.3016 40.8516 30.5484C41.6172 31.7953 42 33.1625 42 34.65V42H0ZM5.25 36.75H36.75V34.65C36.75 34.1688 36.6297 33.7313 36.3891 33.3375C36.1484 32.9438 35.8312 32.6375 35.4375 32.4188C33.075 31.2375 30.6906 30.3516 28.2844 29.7609C25.8781 29.1703 23.45 28.875 21 28.875C18.55 28.875 16.1219 29.1703 13.7156 29.7609C11.3094 30.3516 8.925 31.2375 6.5625 32.4188C6.16875 32.6375 5.85156 32.9438 5.61094 33.3375C5.37031 33.7313 5.25 34.1688 5.25 34.65V36.75ZM21 15.75C22.4438 15.75 23.6797 15.2359 24.7078 14.2078C25.7359 13.1797 26.25 11.9438 26.25 10.5C26.25 9.05625 25.7359 7.82031 24.7078 6.79219C23.6797 5.76406 22.4438 5.25 21 5.25C19.5562 5.25 18.3203 5.76406 17.2922 6.79219C16.2641 7.82031 15.75 9.05625 15.75 10.5C15.75 11.9438 16.2641 13.1797 17.2922 14.2078C18.3203 15.2359 19.5562 15.75 21 15.75Z" fill="#898A8D"/>
<path d="M34.5 21C32.7125 21 31.1823 20.3635 29.9094 19.0906C28.6365 17.8177 28 16.2875 28 14.5C28 12.7125 28.6365 11.1823 29.9094 9.90938C31.1823 8.63646 32.7125 8 34.5 8C36.2875 8 37.8177 8.63646 39.0906 9.90938C40.3635 11.1823 41 12.7125 41 14.5C41 16.2875 40.3635 17.8177 39.0906 19.0906C37.8177 20.3635 36.2875 21 34.5 21ZM34.5 17.75C35.3938 17.75 36.1589 17.4318 36.7953 16.7953C37.4318 16.1589 37.75 15.3938 37.75 14.5C37.75 13.6063 37.4318 12.8411 36.7953 12.2047C36.1589 11.5682 35.3938 11.25 34.5 11.25C33.6063 11.25 32.8411 11.5682 32.2047 12.2047C31.5682 12.8411 31.25 13.6063 31.25 14.5C31.25 15.3938 31.5682 16.1589 32.2047 16.7953C32.8411 17.4318 33.6063 17.75 34.5 17.75Z" fill="#898A8D"/>
<path d="M9.5 21C7.7125 21 6.18229 20.3635 4.90937 19.0906C3.63646 17.8177 3 16.2875 3 14.5C3 12.7125 3.63646 11.1823 4.90937 9.90938C6.18229 8.63646 7.7125 8 9.5 8C11.2875 8 12.8177 8.63646 14.0906 9.90938C15.3635 11.1823 16 12.7125 16 14.5C16 16.2875 15.3635 17.8177 14.0906 19.0906C12.8177 20.3635 11.2875 21 9.5 21ZM9.5 17.75C10.3938 17.75 11.1589 17.4318 11.7953 16.7953C12.4318 16.1589 12.75 15.3938 12.75 14.5C12.75 13.6063 12.4318 12.8411 11.7953 12.2047C11.1589 11.5682 10.3938 11.25 9.5 11.25C8.60625 11.25 7.84115 11.5682 7.20469 12.2047C6.56823 12.8411 6.25 13.6063 6.25 14.5C6.25 15.3938 6.56823 16.1589 7.20469 16.7953C7.84115 17.4318 8.60625 17.75 9.5 17.75Z" fill="#898A8D"/>
<path d="M27 28V25.6C27 25.1143 27.1367 24.6679 27.4102 24.2607C27.6836 23.8536 28.0469 23.5429 28.5 23.3286C29.4687 22.8857 30.4531 22.5536 31.4531 22.3321C32.4531 22.1107 33.4688 22 34.5 22C35.5313 22 36.5469 22.1107 37.5469 22.3321C38.5469 22.5536 39.5313 22.8857 40.5 23.3286C40.9531 23.5429 41.3164 23.8536 41.5898 24.2607C41.8633 24.6679 42 25.1143 42 25.6V28H27ZM28.875 26.2857H40.125V25.6C40.125 25.4429 40.082 25.3 39.9961 25.1714C39.9102 25.0429 39.7969 24.9429 39.6563 24.8714C38.8125 24.4857 37.9609 24.1964 37.1016 24.0036C36.2422 23.8107 35.375 23.7143 34.5 23.7143C33.625 23.7143 32.7578 23.8107 31.8984 24.0036C31.0391 24.1964 30.1875 24.4857 29.3438 24.8714C29.2031 24.9429 29.0898 25.0429 29.0039 25.1714C28.918 25.3 28.875 25.4429 28.875 25.6V26.2857Z" fill="#898A8D"/>
<path d="M2 28V25.6C2 25.1143 2.13672 24.6679 2.41016 24.2607C2.68359 23.8536 3.04687 23.5429 3.5 23.3286C4.46875 22.8857 5.45313 22.5536 6.45313 22.3321C7.45313 22.1107 8.46875 22 9.5 22C10.5313 22 11.5469 22.1107 12.5469 22.3321C13.5469 22.5536 14.5313 22.8857 15.5 23.3286C15.9531 23.5429 16.3164 23.8536 16.5898 24.2607C16.8633 24.6679 17 25.1143 17 25.6V28H2ZM3.875 26.2857H15.125V25.6C15.125 25.4429 15.082 25.3 14.9961 25.1714C14.9102 25.0429 14.7969 24.9429 14.6563 24.8714C13.8125 24.4857 12.9609 24.1964 12.1016 24.0036C11.2422 23.8107 10.375 23.7143 9.5 23.7143C8.625 23.7143 7.75781 23.8107 6.89844 24.0036C6.03906 24.1964 5.1875 24.4857 4.34375 24.8714C4.20313 24.9429 4.08984 25.0429 4.00391 25.1714C3.91797 25.3 3.875 25.4429 3.875 25.6V26.2857Z" fill="#898A8D"/>
</svg>
