<svg width="72" height="72" viewBox="0 0 72 72" fill="none" xmlns="http://www.w3.org/2000/svg">
<rect width="72" height="72" rx="17" fill="#529AE5"/>
<path d="M36 36C33.1125 36 30.6406 34.9719 28.5844 32.9156C26.5281 30.8594 25.5 28.3875 25.5 25.5C25.5 22.6125 26.5281 20.1406 28.5844 18.0844C30.6406 16.0281 33.1125 15 36 15C38.8875 15 41.3594 16.0281 43.4156 18.0844C45.4719 20.1406 46.5 22.6125 46.5 25.5C46.5 28.3875 45.4719 30.8594 43.4156 32.9156C41.3594 34.9719 38.8875 36 36 36ZM15 57V49.65C15 48.1625 15.3828 46.7953 16.1484 45.5484C16.9141 44.3016 17.9312 43.35 19.2 42.6938C21.9125 41.3375 24.6688 40.3203 27.4688 39.6422C30.2687 38.9641 33.1125 38.625 36 38.625C38.8875 38.625 41.7313 38.9641 44.5312 39.6422C47.3312 40.3203 50.0875 41.3375 52.8 42.6938C54.0687 43.35 55.0859 44.3016 55.8516 45.5484C56.6172 46.7953 57 48.1625 57 49.65V57H15ZM20.25 51.75H51.75V49.65C51.75 49.1688 51.6297 48.7313 51.3891 48.3375C51.1484 47.9438 50.8312 47.6375 50.4375 47.4188C48.075 46.2375 45.6906 45.3516 43.2844 44.7609C40.8781 44.1703 38.45 43.875 36 43.875C33.55 43.875 31.1219 44.1703 28.7156 44.7609C26.3094 45.3516 23.925 46.2375 21.5625 47.4188C21.1688 47.6375 20.8516 47.9438 20.6109 48.3375C20.3703 48.7313 20.25 49.1688 20.25 49.65V51.75ZM36 30.75C37.4438 30.75 38.6797 30.2359 39.7078 29.2078C40.7359 28.1797 41.25 26.9438 41.25 25.5C41.25 24.0562 40.7359 22.8203 39.7078 21.7922C38.6797 20.7641 37.4438 20.25 36 20.25C34.5562 20.25 33.3203 20.7641 32.2922 21.7922C31.2641 22.8203 30.75 24.0562 30.75 25.5C30.75 26.9438 31.2641 28.1797 32.2922 29.2078C33.3203 30.2359 34.5562 30.75 36 30.75Z" fill="white"/>
<path d="M49.5 36C47.7125 36 46.1823 35.3635 44.9094 34.0906C43.6365 32.8177 43 31.2875 43 29.5C43 27.7125 43.6365 26.1823 44.9094 24.9094C46.1823 23.6365 47.7125 23 49.5 23C51.2875 23 52.8177 23.6365 54.0906 24.9094C55.3635 26.1823 56 27.7125 56 29.5C56 31.2875 55.3635 32.8177 54.0906 34.0906C52.8177 35.3635 51.2875 36 49.5 36ZM49.5 32.75C50.3938 32.75 51.1589 32.4318 51.7953 31.7953C52.4318 31.1589 52.75 30.3938 52.75 29.5C52.75 28.6063 52.4318 27.8411 51.7953 27.2047C51.1589 26.5682 50.3938 26.25 49.5 26.25C48.6063 26.25 47.8411 26.5682 47.2047 27.2047C46.5682 27.8411 46.25 28.6063 46.25 29.5C46.25 30.3938 46.5682 31.1589 47.2047 31.7953C47.8411 32.4318 48.6063 32.75 49.5 32.75Z" fill="white"/>
<path d="M24.5 36C22.7125 36 21.1823 35.3635 19.9094 34.0906C18.6365 32.8177 18 31.2875 18 29.5C18 27.7125 18.6365 26.1823 19.9094 24.9094C21.1823 23.6365 22.7125 23 24.5 23C26.2875 23 27.8177 23.6365 29.0906 24.9094C30.3635 26.1823 31 27.7125 31 29.5C31 31.2875 30.3635 32.8177 29.0906 34.0906C27.8177 35.3635 26.2875 36 24.5 36ZM24.5 32.75C25.3938 32.75 26.1589 32.4318 26.7953 31.7953C27.4318 31.1589 27.75 30.3938 27.75 29.5C27.75 28.6063 27.4318 27.8411 26.7953 27.2047C26.1589 26.5682 25.3938 26.25 24.5 26.25C23.6063 26.25 22.8411 26.5682 22.2047 27.2047C21.5682 27.8411 21.25 28.6063 21.25 29.5C21.25 30.3938 21.5682 31.1589 22.2047 31.7953C22.8411 32.4318 23.6063 32.75 24.5 32.75Z" fill="white"/>
<path d="M42 43V40.6C42 40.1143 42.1367 39.6679 42.4102 39.2607C42.6836 38.8536 43.0469 38.5429 43.5 38.3286C44.4687 37.8857 45.4531 37.5536 46.4531 37.3321C47.4531 37.1107 48.4688 37 49.5 37C50.5313 37 51.5469 37.1107 52.5469 37.3321C53.5469 37.5536 54.5313 37.8857 55.5 38.3286C55.9531 38.5429 56.3164 38.8536 56.5898 39.2607C56.8633 39.6679 57 40.1143 57 40.6V43H42ZM43.875 41.2857H55.125V40.6C55.125 40.4429 55.082 40.3 54.9961 40.1714C54.9102 40.0429 54.7969 39.9429 54.6563 39.8714C53.8125 39.4857 52.9609 39.1964 52.1016 39.0036C51.2422 38.8107 50.375 38.7143 49.5 38.7143C48.625 38.7143 47.7578 38.8107 46.8984 39.0036C46.0391 39.1964 45.1875 39.4857 44.3438 39.8714C44.2031 39.9429 44.0898 40.0429 44.0039 40.1714C43.918 40.3 43.875 40.4429 43.875 40.6V41.2857Z" fill="white"/>
<path d="M17 43V40.6C17 40.1143 17.1367 39.6679 17.4102 39.2607C17.6836 38.8536 18.0469 38.5429 18.5 38.3286C19.4687 37.8857 20.4531 37.5536 21.4531 37.3321C22.4531 37.1107 23.4688 37 24.5 37C25.5313 37 26.5469 37.1107 27.5469 37.3321C28.5469 37.5536 29.5313 37.8857 30.5 38.3286C30.9531 38.5429 31.3164 38.8536 31.5898 39.2607C31.8633 39.6679 32 40.1143 32 40.6V43H17ZM18.875 41.2857H30.125V40.6C30.125 40.4429 30.082 40.3 29.9961 40.1714C29.9102 40.0429 29.7969 39.9429 29.6563 39.8714C28.8125 39.4857 27.9609 39.1964 27.1016 39.0036C26.2422 38.8107 25.375 38.7143 24.5 38.7143C23.625 38.7143 22.7578 38.8107 21.8984 39.0036C21.0391 39.1964 20.1875 39.4857 19.3438 39.8714C19.2031 39.9429 19.0898 40.0429 19.0039 40.1714C18.918 40.3 18.875 40.4429 18.875 40.6V41.2857Z" fill="white"/>
</svg>
